<svg xmlns="http://www.w3.org/2000/svg" width="980" height="990" viewBox="0 0 980 990">
<style>
text{font-family:Arial,Helvetica,sans-serif;fill:#172033}
.title{font-size:22px;font-weight:700}.label{font-size:12px}.value{font-size:12px;fill:#39475f}
.axis{stroke:#d7deea;stroke-width:1}.bar{fill:#356f8c}.bar.alt{fill:#d18454}
</style>
<rect x="0" y="0" width="980" height="990" fill="#ffffff"/>
<text class="title" x="24" y="34">Rows per processed dataset</text>
<line class="axis" x1="210" y1="46" x2="910" y2="46"/>
<text class="label" x="24" y="74">census_income_kdd (tensor)</text>
<rect class="bar" x="210" y="58" width="700.0" height="18" rx="2"/>
<text class="value" x="918.0" y="72">299,285</text>
<text class="label" x="24" y="102">skin_segmentation (tensor)</text>
<rect class="bar alt" x="210" y="86" width="573.2" height="18" rx="2"/>
<text class="value" x="791.2" y="100">245,057</text>
<text class="label" x="24" y="130">phiusiil_phishing (tensor)</text>
<rect class="bar" x="210" y="114" width="551.5" height="18" rx="2"/>
<text class="value" x="769.5" y="128">235,795</text>
<text class="label" x="24" y="158">rt_iot2022 (tensor)</text>
<rect class="bar alt" x="210" y="142" width="288.0" height="18" rx="2"/>
<text class="value" x="506.0" y="156">123,117</text>
<text class="label" x="24" y="186">aps_failure (tensor)</text>
<rect class="bar" x="210" y="170" width="177.8" height="18" rx="2"/>
<text class="value" x="395.8" y="184">76,000</text>
<text class="label" x="24" y="214">connect_4 (tensor)</text>
<rect class="bar alt" x="210" y="198" width="158.0" height="18" rx="2"/>
<text class="value" x="376.0" y="212">67,557</text>
<text class="label" x="24" y="242">secondary_mushroom (tensor)</text>
<rect class="bar" x="210" y="226" width="142.8" height="18" rx="2"/>
<text class="value" x="360.8" y="240">61,069</text>
<text class="label" x="24" y="270">sensorless_drive (tensor)</text>
<rect class="bar alt" x="210" y="254" width="136.8" height="18" rx="2"/>
<text class="value" x="354.8" y="268">58,509</text>
<text class="label" x="24" y="298">shuttle (tensor)</text>
<rect class="bar" x="210" y="282" width="135.7" height="18" rx="2"/>
<text class="value" x="353.7" y="296">58,000</text>
<text class="label" x="24" y="326">krkopt (tensor)</text>
<rect class="bar alt" x="210" y="310" width="65.6" height="18" rx="2"/>
<text class="value" x="283.6" y="324">28,056</text>
<text class="label" x="24" y="354">nursery (tensor)</text>
<rect class="bar" x="210" y="338" width="30.3" height="18" rx="2"/>
<text class="value" x="248.3" y="352">12,960</text>
<text class="label" x="24" y="382">asia_lung (tensor)</text>
<rect class="bar alt" x="210" y="366" width="11.7" height="18" rx="2"/>
<text class="value" x="229.7" y="380">5,000</text>
<text class="label" x="24" y="410">led7 (tensor)</text>
<rect class="bar" x="210" y="394" width="7.5" height="18" rx="2"/>
<text class="value" x="225.5" y="408">3,200</text>
<text class="label" x="24" y="438">coronary (tensor)</text>
<rect class="bar alt" x="210" y="422" width="4.3" height="18" rx="2"/>
<text class="value" x="222.3" y="436">1,841</text>
<text class="label" x="24" y="466">car_evaluation (tensor)</text>
<rect class="bar" x="210" y="450" width="4.0" height="18" rx="2"/>
<text class="value" x="222.0" y="464">1,728</text>
<text class="label" x="24" y="494">mofn (tensor)</text>
<rect class="bar alt" x="210" y="478" width="3.1" height="18" rx="2"/>
<text class="value" x="221.1" y="492">1,324</text>
<text class="label" x="24" y="522">parity5p5 (tensor)</text>
<rect class="bar" x="210" y="506" width="2.6" height="18" rx="2"/>
<text class="value" x="220.6" y="520">1,124</text>
<text class="label" x="24" y="550">xd6 (tensor)</text>
<rect class="bar alt" x="210" y="534" width="2.3" height="18" rx="2"/>
<text class="value" x="220.3" y="548">973</text>
<text class="label" x="24" y="578">credit_approval (tensor)</text>
<rect class="bar" x="210" y="562" width="1.6" height="18" rx="2"/>
<text class="value" x="219.6" y="576">690</text>
<text class="label" x="24" y="606">dmft (tensor)</text>
<rect class="bar alt" x="210" y="590" width="1.5" height="18" rx="2"/>
<text class="value" x="219.5" y="604">661</text>
<text class="label" x="24" y="634">balance_scale (tensor)</text>
<rect class="bar" x="210" y="618" width="1.5" height="18" rx="2"/>
<text class="value" x="219.5" y="632">625</text>
<text class="label" x="24" y="662">monk_2 (tensor)</text>
<rect class="bar alt" x="210" y="646" width="1.4" height="18" rx="2"/>
<text class="value" x="219.4" y="660">601</text>
<text class="label" x="24" y="690">sensory (tensor)</text>
<rect class="bar" x="210" y="674" width="1.3" height="18" rx="2"/>
<text class="value" x="219.3" y="688">576</text>
<text class="label" x="24" y="718">monk_1 (tensor)</text>
<rect class="bar alt" x="210" y="702" width="1.3" height="18" rx="2"/>
<text class="value" x="219.3" y="716">556</text>
<text class="label" x="24" y="746">monk_3 (tensor)</text>
<rect class="bar" x="210" y="730" width="1.3" height="18" rx="2"/>
<text class="value" x="219.3" y="744">554</text>
<text class="label" x="24" y="774">three_of_nine (tensor)</text>
<rect class="bar alt" x="210" y="758" width="1.2" height="18" rx="2"/>
<text class="value" x="219.2" y="772">512</text>
<text class="label" x="24" y="802">house_votes_84 (tensor)</text>
<rect class="bar" x="210" y="786" width="1.0" height="18" rx="2"/>
<text class="value" x="219.0" y="800">435</text>
<text class="label" x="24" y="830">german_gss (tensor)</text>
<rect class="bar alt" x="210" y="814" width="0.9" height="18" rx="2"/>
<text class="value" x="218.9" y="828">400</text>
<text class="label" x="24" y="858">ptumor (tensor)</text>
<rect class="bar" x="210" y="842" width="0.8" height="18" rx="2"/>
<text class="value" x="218.8" y="856">339</text>
<text class="label" x="24" y="886">primary_tumor (tensor)</text>
<rect class="bar alt" x="210" y="870" width="0.8" height="18" rx="2"/>
<text class="value" x="218.8" y="884">330</text>
<text class="label" x="24" y="914">cleveland (tensor)</text>
<rect class="bar" x="210" y="898" width="0.7" height="18" rx="2"/>
<text class="value" x="218.7" y="912">303</text>
<text class="label" x="24" y="942">conf_ad (tensor)</text>
<rect class="bar alt" x="210" y="926" width="0.6" height="18" rx="2"/>
<text class="value" x="218.6" y="940">246</text>
</svg>