<svg xmlns="http://www.w3.org/2000/svg" width="980" height="990" viewBox="0 0 980 990">
<style>
text{font-family:Arial,Helvetica,sans-serif;fill:#172033}
.title{font-size:22px;font-weight:700}.label{font-size:12px}.value{font-size:12px;fill:#39475f}
.axis{stroke:#d7deea;stroke-width:1}.bar{fill:#356f8c}.bar.alt{fill:#d18454}
</style>
<rect x="0" y="0" width="980" height="990" fill="#ffffff"/>
<text class="title" x="24" y="34">Largest feature cardinalities</text>
<line class="axis" x1="210" y1="46" x2="910" y2="46"/>
<text class="label" x="24" y="74">house_votes_84 / handicapped_inf</text>
<rect class="bar" x="210" y="58" width="700.0" height="18" rx="2"/>
<text class="value" x="918.0" y="72">4</text>
<text class="label" x="24" y="102">house_votes_84 / water_project_c</text>
<rect class="bar alt" x="210" y="86" width="700.0" height="18" rx="2"/>
<text class="value" x="918.0" y="100">4</text>
<text class="label" x="24" y="130">house_votes_84 / adoption_of_the</text>
<rect class="bar" x="210" y="114" width="700.0" height="18" rx="2"/>
<text class="value" x="918.0" y="128">4</text>
<text class="label" x="24" y="158">house_votes_84 / physician_fee_f</text>
<rect class="bar alt" x="210" y="142" width="700.0" height="18" rx="2"/>
<text class="value" x="918.0" y="156">4</text>
<text class="label" x="24" y="186">house_votes_84 / el_salvador_aid</text>
<rect class="bar" x="210" y="170" width="700.0" height="18" rx="2"/>
<text class="value" x="918.0" y="184">4</text>
<text class="label" x="24" y="214">house_votes_84 / religious_group</text>
<rect class="bar alt" x="210" y="198" width="700.0" height="18" rx="2"/>
<text class="value" x="918.0" y="212">4</text>
<text class="label" x="24" y="242">house_votes_84 / anti_satellite_</text>
<rect class="bar" x="210" y="226" width="700.0" height="18" rx="2"/>
<text class="value" x="918.0" y="240">4</text>
<text class="label" x="24" y="270">house_votes_84 / aid_to_nicaragu</text>
<rect class="bar alt" x="210" y="254" width="700.0" height="18" rx="2"/>
<text class="value" x="918.0" y="268">4</text>
<text class="label" x="24" y="298">house_votes_84 / mx_missile (ten</text>
<rect class="bar" x="210" y="282" width="700.0" height="18" rx="2"/>
<text class="value" x="918.0" y="296">4</text>
<text class="label" x="24" y="326">house_votes_84 / immigration (te</text>
<rect class="bar alt" x="210" y="310" width="700.0" height="18" rx="2"/>
<text class="value" x="918.0" y="324">4</text>
<text class="label" x="24" y="354">house_votes_84 / synfuels_corpor</text>
<rect class="bar" x="210" y="338" width="700.0" height="18" rx="2"/>
<text class="value" x="918.0" y="352">4</text>
<text class="label" x="24" y="382">house_votes_84 / education_spend</text>
<rect class="bar alt" x="210" y="366" width="700.0" height="18" rx="2"/>
<text class="value" x="918.0" y="380">4</text>
<text class="label" x="24" y="410">house_votes_84 / superfund_right</text>
<rect class="bar" x="210" y="394" width="700.0" height="18" rx="2"/>
<text class="value" x="918.0" y="408">4</text>
<text class="label" x="24" y="438">house_votes_84 / crime (tensor)</text>
<rect class="bar alt" x="210" y="422" width="700.0" height="18" rx="2"/>
<text class="value" x="918.0" y="436">4</text>
<text class="label" x="24" y="466">house_votes_84 / duty_free_expor</text>
<rect class="bar" x="210" y="450" width="700.0" height="18" rx="2"/>
<text class="value" x="918.0" y="464">4</text>
<text class="label" x="24" y="494">house_votes_84 / export_administ</text>
<rect class="bar alt" x="210" y="478" width="700.0" height="18" rx="2"/>
<text class="value" x="918.0" y="492">4</text>
<text class="label" x="24" y="522">house_votes_84 / handicapped_inf</text>
<rect class="bar" x="210" y="506" width="700.0" height="18" rx="2"/>
<text class="value" x="918.0" y="520">4</text>
<text class="label" x="24" y="550">house_votes_84 / water_project_c</text>
<rect class="bar alt" x="210" y="534" width="700.0" height="18" rx="2"/>
<text class="value" x="918.0" y="548">4</text>
<text class="label" x="24" y="578">house_votes_84 / adoption_of_the</text>
<rect class="bar" x="210" y="562" width="700.0" height="18" rx="2"/>
<text class="value" x="918.0" y="576">4</text>
<text class="label" x="24" y="606">house_votes_84 / physician_fee_f</text>
<rect class="bar alt" x="210" y="590" width="700.0" height="18" rx="2"/>
<text class="value" x="918.0" y="604">4</text>
<text class="label" x="24" y="634">house_votes_84 / el_salvador_aid</text>
<rect class="bar" x="210" y="618" width="700.0" height="18" rx="2"/>
<text class="value" x="918.0" y="632">4</text>
<text class="label" x="24" y="662">house_votes_84 / religious_group</text>
<rect class="bar alt" x="210" y="646" width="700.0" height="18" rx="2"/>
<text class="value" x="918.0" y="660">4</text>
<text class="label" x="24" y="690">house_votes_84 / anti_satellite_</text>
<rect class="bar" x="210" y="674" width="700.0" height="18" rx="2"/>
<text class="value" x="918.0" y="688">4</text>
<text class="label" x="24" y="718">house_votes_84 / aid_to_nicaragu</text>
<rect class="bar alt" x="210" y="702" width="700.0" height="18" rx="2"/>
<text class="value" x="918.0" y="716">4</text>
<text class="label" x="24" y="746">house_votes_84 / mx_missile (bas</text>
<rect class="bar" x="210" y="730" width="700.0" height="18" rx="2"/>
<text class="value" x="918.0" y="744">4</text>
<text class="label" x="24" y="774">house_votes_84 / immigration (ba</text>
<rect class="bar alt" x="210" y="758" width="700.0" height="18" rx="2"/>
<text class="value" x="918.0" y="772">4</text>
<text class="label" x="24" y="802">house_votes_84 / synfuels_corpor</text>
<rect class="bar" x="210" y="786" width="700.0" height="18" rx="2"/>
<text class="value" x="918.0" y="800">4</text>
<text class="label" x="24" y="830">house_votes_84 / education_spend</text>
<rect class="bar alt" x="210" y="814" width="700.0" height="18" rx="2"/>
<text class="value" x="918.0" y="828">4</text>
<text class="label" x="24" y="858">house_votes_84 / superfund_right</text>
<rect class="bar" x="210" y="842" width="700.0" height="18" rx="2"/>
<text class="value" x="918.0" y="856">4</text>
<text class="label" x="24" y="886">house_votes_84 / crime (baseline</text>
<rect class="bar alt" x="210" y="870" width="700.0" height="18" rx="2"/>
<text class="value" x="918.0" y="884">4</text>
<text class="label" x="24" y="914">house_votes_84 / duty_free_expor</text>
<rect class="bar" x="210" y="898" width="700.0" height="18" rx="2"/>
<text class="value" x="918.0" y="912">4</text>
<text class="label" x="24" y="942">house_votes_84 / export_administ</text>
<rect class="bar alt" x="210" y="926" width="700.0" height="18" rx="2"/>
<text class="value" x="918.0" y="940">4</text>
</svg>